<?xml version="1.0" encoding="utf-8"?>
<!-- Generator: Adobe Illustrator 26.0.1, SVG Export Plug-In . SVG Version: 6.00 Build 0)  -->
<svg version="1.1" id="Layer_1" xmlns:svgjs="http://svgjs.com/svgjs"
	 xmlns="http://www.w3.org/2000/svg" xmlns:xlink="http://www.w3.org/1999/xlink" x="0px" y="0px" viewBox="0 0 1440 1000"
	 style="enable-background:new 0 0 1440 1000;" xml:space="preserve">
<style type="text/css">
	.st0{fill:none;stroke-width:7;}
</style>
<g>
	<!-- stroke:url(#SVGID_1_) -->
		<radialGradient id="SVGID_1_" cx="1442.4562" cy="1002.8646" r="1759.3704" gradientTransform="matrix(1 0 0 -1 0 1000)" gradientUnits="userSpaceOnUse">
		<stop  offset="0" style="stop-color:#0E2A47"/>
		<stop  offset="0.97" style="stop-color:#000000"/>
		<stop  offset="1" style="stop-color:#000000"/>
	</radialGradient>
	<path class="st0" d="M9.2-3.2l42.4,24.5v49L9.2,94.8l-42.4-24.5v-49L9.2-3.2z M9.2,437.8l42.4,24.5v49L9.2,535.8l-42.4-24.5v-49
		L9.2,437.8z M51.6,658.3l42.4,24.5v49l-42.4,24.5L9.2,731.8v-49L51.6,658.3z M9.2,878.8l42.4,24.5v49L9.2,976.8l-42.4-24.5v-49
		L9.2,878.8z M51.6,952.3l42.4,24.5v49l-42.4,24.5l-42.4-24.5v-49L51.6,952.3z M94.1,143.8l42.4,24.5v49l-42.4,24.5l-42.4-24.5v-49
		L94.1,143.8z M94.1,290.8l42.4,24.5v49l-42.4,24.5l-42.4-24.5v-49L94.1,290.8z M136.5,364.3l42.4,24.5v49l-42.4,24.5l-42.4-24.5
		v-49L136.5,364.3z M136.5,511.3l42.4,24.5v49l-42.4,24.5l-42.4-24.5v-49L136.5,511.3z M136.5,658.3l42.4,24.5v49l-42.4,24.5
		l-42.4-24.5v-49L136.5,658.3z M136.5,805.3l42.4,24.5v49l-42.4,24.5l-42.4-24.5v-49L136.5,805.3z M94.1,878.8l42.4,24.5v49
		l-42.4,24.5l-42.4-24.5v-49L94.1,878.8z M221.4,70.3l42.4,24.5v49l-42.4,24.5l-42.4-24.5v-49L221.4,70.3z M178.9,143.8l42.4,24.5
		v49l-42.4,24.5l-42.4-24.5v-49L178.9,143.8z M221.4,217.3l42.4,24.5v49l-42.4,24.5l-42.4-24.5v-49L221.4,217.3z M221.4,364.3
		l42.4,24.5v49l-42.4,24.5l-42.4-24.5v-49L221.4,364.3z M221.4,511.3l42.4,24.5v49l-42.4,24.5l-42.4-24.5v-49L221.4,511.3z
		 M221.4,658.3l42.4,24.5v49l-42.4,24.5l-42.4-24.5v-49L221.4,658.3z M178.9,1025.8l42.4,24.5v49l-42.4,24.5l-42.4-24.5v-49
		L178.9,1025.8z M306.2,217.3l42.4,24.5v49l-42.4,24.5l-42.4-24.5v-49L306.2,217.3z M263.8,437.8l42.4,24.5v49l-42.4,24.5
		l-42.4-24.5v-49L263.8,437.8z M306.2,511.3l42.4,24.5v49l-42.4,24.5l-42.4-24.5v-49L306.2,511.3z M306.2,658.3l42.4,24.5v49
		l-42.4,24.5l-42.4-24.5v-49L306.2,658.3z M263.8,731.8l42.4,24.5v49l-42.4,24.5l-42.4-24.5v-49L263.8,731.8z M306.2,805.3
		l42.4,24.5v49l-42.4,24.5l-42.4-24.5v-49L306.2,805.3z M348.7-3.2l42.4,24.5v49l-42.4,24.5l-42.4-24.5v-49L348.7-3.2z M348.7,143.8
		l42.4,24.5v49l-42.4,24.5l-42.4-24.5v-49L348.7,143.8z M391.1,217.3l42.4,24.5v49l-42.4,24.5l-42.4-24.5v-49L391.1,217.3z
		 M348.7,437.8l42.4,24.5v49l-42.4,24.5l-42.4-24.5v-49L348.7,437.8z M391.1,511.3l42.4,24.5v49l-42.4,24.5l-42.4-24.5v-49
		L391.1,511.3z M348.7,731.8l42.4,24.5v49l-42.4,24.5l-42.4-24.5v-49L348.7,731.8z M391.1,805.3l42.4,24.5v49l-42.4,24.5l-42.4-24.5
		v-49L391.1,805.3z M348.7,878.8l42.4,24.5v49l-42.4,24.5l-42.4-24.5v-49L348.7,878.8z M348.7,1025.8l42.4,24.5v49l-42.4,24.5
		l-42.4-24.5v-49L348.7,1025.8z M433.5-3.2L476,21.3v49l-42.4,24.5l-42.4-24.5v-49L433.5-3.2z M476,70.3l42.4,24.5v49L476,168.3
		l-42.4-24.5v-49L476,70.3z M433.5,143.8l42.4,24.5v49l-42.4,24.5l-42.4-24.5v-49L433.5,143.8z M433.5,437.8l42.4,24.5v49
		l-42.4,24.5l-42.4-24.5v-49L433.5,437.8z M476,805.3l42.4,24.5v49L476,903.3l-42.4-24.5v-49L476,805.3z M433.5,878.8l42.4,24.5v49
		l-42.4,24.5l-42.4-24.5v-49L433.5,878.8z M560.8,70.3l42.4,24.5v49l-42.4,24.5l-42.4-24.5v-49L560.8,70.3z M518.4,437.8l42.4,24.5
		v49l-42.4,24.5L476,511.3v-49L518.4,437.8z M560.8,805.3l42.4,24.5v49l-42.4,24.5l-42.4-24.5v-49L560.8,805.3z M518.4,878.8
		l42.4,24.5v49l-42.4,24.5L476,952.3v-49L518.4,878.8z M603.3-3.2l42.4,24.5v49l-42.4,24.5l-42.4-24.5v-49L603.3-3.2z M645.7,217.3
		l42.4,24.5v49l-42.4,24.5l-42.4-24.5v-49L645.7,217.3z M603.3,290.8l42.4,24.5v49l-42.4,24.5l-42.4-24.5v-49L603.3,290.8z
		 M603.3,731.8l42.4,24.5v49l-42.4,24.5l-42.4-24.5v-49L603.3,731.8z M645.7,805.3l42.4,24.5v49l-42.4,24.5l-42.4-24.5v-49
		L645.7,805.3z M603.3,1025.8l42.4,24.5v49l-42.4,24.5l-42.4-24.5v-49L603.3,1025.8z M688.2-3.2l42.4,24.5v49l-42.4,24.5l-42.4-24.5
		v-49L688.2-3.2z M730.6,70.3L773,94.8v49l-42.4,24.5l-42.4-24.5v-49L730.6,70.3z M730.6,217.3l42.4,24.5v49l-42.4,24.5l-42.4-24.5
		v-49L730.6,217.3z M688.2,290.8l42.4,24.5v49l-42.4,24.5l-42.4-24.5v-49L688.2,290.8z M730.6,364.3l42.4,24.5v49l-42.4,24.5
		l-42.4-24.5v-49L730.6,364.3z M688.2,584.8l42.4,24.5v49l-42.4,24.5l-42.4-24.5v-49L688.2,584.8z M730.6,805.3l42.4,24.5v49
		l-42.4,24.5l-42.4-24.5v-49L730.6,805.3z M688.2,878.8l42.4,24.5v49l-42.4,24.5l-42.4-24.5v-49L688.2,878.8z M730.6,952.3
		l42.4,24.5v49l-42.4,24.5l-42.4-24.5v-49L730.6,952.3z M773-3.2l42.4,24.5v49L773,94.8l-42.4-24.5v-49L773-3.2z M815.5,70.3
		l42.4,24.5v49l-42.4,24.5L773,143.8v-49L815.5,70.3z M773,143.8l42.4,24.5v49L773,241.8l-42.4-24.5v-49L773,143.8z M773,290.8
		l42.4,24.5v49L773,388.8l-42.4-24.5v-49L773,290.8z M815.5,364.3l42.4,24.5v49l-42.4,24.5L773,437.8v-49L815.5,364.3z M773,584.8
		l42.4,24.5v49L773,682.8l-42.4-24.5v-49L773,584.8z M815.5,658.3l42.4,24.5v49l-42.4,24.5L773,731.8v-49L815.5,658.3z M815.5,805.3
		l42.4,24.5v49l-42.4,24.5L773,878.8v-49L815.5,805.3z M773,1025.8l42.4,24.5v49l-42.4,24.5l-42.4-24.5v-49L773,1025.8z
		 M857.9,143.8l42.4,24.5v49l-42.4,24.5l-42.4-24.5v-49L857.9,143.8z M857.9,290.8l42.4,24.5v49l-42.4,24.5l-42.4-24.5v-49
		L857.9,290.8z M900.3,364.3l42.4,24.5v49l-42.4,24.5l-42.4-24.5v-49L900.3,364.3z M900.3,511.3l42.4,24.5v49l-42.4,24.5l-42.4-24.5
		v-49L900.3,511.3z M900.3,805.3l42.4,24.5v49l-42.4,24.5l-42.4-24.5v-49L900.3,805.3z M985.2,511.3l42.4,24.5v49l-42.4,24.5
		l-42.4-24.5v-49L985.2,511.3z M942.8,584.8l42.4,24.5v49l-42.4,24.5l-42.4-24.5v-49L942.8,584.8z M985.2,658.3l42.4,24.5v49
		l-42.4,24.5l-42.4-24.5v-49L985.2,658.3z M985.2,805.3l42.4,24.5v49l-42.4,24.5l-42.4-24.5v-49L985.2,805.3z M942.8,878.8
		l42.4,24.5v49l-42.4,24.5l-42.4-24.5v-49L942.8,878.8z M985.2,952.3l42.4,24.5v49l-42.4,24.5l-42.4-24.5v-49L985.2,952.3z
		 M942.8,1025.8l42.4,24.5v49l-42.4,24.5l-42.4-24.5v-49L942.8,1025.8z M1027.7-3.2l42.4,24.5v49l-42.4,24.5l-42.4-24.5v-49
		L1027.7-3.2z M1070.1,364.3l42.4,24.5v49l-42.4,24.5l-42.4-24.5v-49L1070.1,364.3z M1027.7,437.8l42.4,24.5v49l-42.4,24.5
		l-42.4-24.5v-49L1027.7,437.8z M1027.7,584.8l42.4,24.5v49l-42.4,24.5l-42.4-24.5v-49L1027.7,584.8z M1027.7,878.8l42.4,24.5v49
		l-42.4,24.5l-42.4-24.5v-49L1027.7,878.8z M1070.1,952.3l42.4,24.5v49l-42.4,24.5l-42.4-24.5v-49L1070.1,952.3z M1112.5-3.2
		l42.4,24.5v49l-42.4,24.5l-42.4-24.5v-49L1112.5-3.2z M1155,70.3l42.4,24.5v49l-42.4,24.5l-42.4-24.5v-49L1155,70.3z M1155,217.3
		l42.4,24.5v49l-42.4,24.5l-42.4-24.5v-49L1155,217.3z M1112.5,290.8l42.4,24.5v49l-42.4,24.5l-42.4-24.5v-49L1112.5,290.8z
		 M1155,364.3l42.4,24.5v49l-42.4,24.5l-42.4-24.5v-49L1155,364.3z M1112.5,584.8l42.4,24.5v49l-42.4,24.5l-42.4-24.5v-49
		L1112.5,584.8z M1112.5,878.8l42.4,24.5v49l-42.4,24.5l-42.4-24.5v-49L1112.5,878.8z M1112.5,1025.8l42.4,24.5v49l-42.4,24.5
		l-42.4-24.5v-49L1112.5,1025.8z M1197.4,143.8l42.4,24.5v49l-42.4,24.5l-42.4-24.5v-49L1197.4,143.8z M1197.4,731.8l42.4,24.5v49
		l-42.4,24.5l-42.4-24.5v-49L1197.4,731.8z M1239.8,952.3l42.4,24.5v49l-42.4,24.5l-42.4-24.5v-49L1239.8,952.3z M1324.7,511.3
		l42.4,24.5v49l-42.4,24.5l-42.4-24.5v-49L1324.7,511.3z M1282.3,584.8l42.4,24.5v49l-42.4,24.5l-42.4-24.5v-49L1282.3,584.8z
		 M1282.3,731.8l42.4,24.5v49l-42.4,24.5l-42.4-24.5v-49L1282.3,731.8z M1324.7,805.3l42.4,24.5v49l-42.4,24.5l-42.4-24.5v-49
		L1324.7,805.3z M1282.3,878.8l42.4,24.5v49l-42.4,24.5l-42.4-24.5v-49L1282.3,878.8z M1282.3,1025.8l42.4,24.5v49l-42.4,24.5
		l-42.4-24.5v-49L1282.3,1025.8z M1367.2-3.2l42.4,24.5v49l-42.4,24.5l-42.4-24.5v-49L1367.2-3.2z M1409.6,70.3l42.4,24.5v49
		l-42.4,24.5l-42.4-24.5v-49L1409.6,70.3z M1409.6,364.3l42.4,24.5v49l-42.4,24.5l-42.4-24.5v-49L1409.6,364.3z M1367.2,437.8
		l42.4,24.5v49l-42.4,24.5l-42.4-24.5v-49L1367.2,437.8z M1409.6,511.3l42.4,24.5v49l-42.4,24.5l-42.4-24.5v-49L1409.6,511.3z
		 M1367.2,584.8l42.4,24.5v49l-42.4,24.5l-42.4-24.5v-49L1367.2,584.8z M1367.2,878.8l42.4,24.5v49l-42.4,24.5l-42.4-24.5v-49
		L1367.2,878.8z M1409.6,952.3l42.4,24.5v49l-42.4,24.5l-42.4-24.5v-49L1409.6,952.3z" stroke="black" />
</g>
</svg>
