<?xml version="1.0" encoding="utf-8"?>
<!-- Generator: Adobe Illustrator 26.0.1, SVG Export Plug-In . SVG Version: 6.00 Build 0)  -->
<!DOCTYPE svg PUBLIC "-//W3C//DTD SVG 1.1//EN" "http://www.w3.org/Graphics/SVG/1.1/DTD/svg11.dtd" [
	<!ENTITY ns_extend "http://ns.adobe.com/Extensibility/1.0/">
	<!ENTITY ns_ai "http://ns.adobe.com/AdobeIllustrator/10.0/">
	<!ENTITY ns_graphs "http://ns.adobe.com/Graphs/1.0/">
	<!ENTITY ns_vars "http://ns.adobe.com/Variables/1.0/">
	<!ENTITY ns_imrep "http://ns.adobe.com/ImageReplacement/1.0/">
	<!ENTITY ns_sfw "http://ns.adobe.com/SaveForWeb/1.0/">
	<!ENTITY ns_custom "http://ns.adobe.com/GenericCustomNamespace/1.0/">
	<!ENTITY ns_adobe_xpath "http://ns.adobe.com/XPath/1.0/">
]>
<svg version="1.1" id="Layer_1" xmlns:x="&ns_extend;" xmlns:i="&ns_ai;" xmlns:graph="&ns_graphs;"
	 xmlns="http://www.w3.org/2000/svg" xmlns:xlink="http://www.w3.org/1999/xlink" x="0px" y="0px" viewBox="0 0 1920 1080"
	 style="enable-background:new 0 0 1920 1080;" xml:space="preserve">
<switch>
	<g i:extraneous="self">
		<g>
			<path d="M242.1,117.4l114.1,65.9V315l-114.1,65.9L128.1,315V183.2L242.1,117.4 M242.1,109.3l-121.1,69.9V319l121.1,69.9
				L363.2,319V179.2L242.1,109.3L242.1,109.3z"/>
		</g>
		<g>
			<path d="M1168.6,102.6l114.1,65.9v131.7L1168.6,366l-114.1-65.9V168.4L1168.6,102.6 M1168.6,94.5l-121.1,69.9v139.8l121.1,69.9
				l121.1-69.9V164.4L1168.6,94.5L1168.6,94.5z"/>
		</g>
		<g>
			<path d="M623.3,349.3l114.1,65.9v131.7l-114.1,65.9l-114.1-65.9V415.2L623.3,349.3 M623.3,341.2l-121.1,69.9v139.8l121.1,69.9
				l121.1-69.9V411.1L623.3,341.2L623.3,341.2z"/>
		</g>
		<g>
			<path d="M1099.5,679.2l114.1,65.9v131.7l-114.1,65.9l-114.1-65.9V745L1099.5,679.2 M1099.5,671.1L978.5,741v139.8l121.1,69.9
				l121.1-69.9V741L1099.5,671.1L1099.5,671.1z"/>
		</g>
		<g>
			<path d="M865.5,20.5l114.1,65.9V218l-114.1,65.9L751.4,218V86.3L865.5,20.5 M865.5,12.4L744.4,82.3v139.8L865.5,292l121.1-69.9
				V82.3L865.5,12.4L865.5,12.4z"/>
		</g>
		<g>
			<path d="M198.1,760.9l114.1,65.9v131.7l-114.1,65.9L84.1,958.4V826.7L198.1,760.9 M198.1,752.8L77.1,822.7v139.8l121.1,69.9
				l121.1-69.9V822.7L198.1,752.8L198.1,752.8z"/>
		</g>
		<g>
			<path d="M319.2,444.9l114.1,65.9v131.7l-114.1,65.9l-114.1-65.9V510.8L319.2,444.9 M319.2,436.8l-121.1,69.9v139.8l121.1,69.9
				l121.1-69.9V506.7L319.2,436.8L319.2,436.8z"/>
		</g>
		<g>
			<path d="M502.2,737.2L616.3,803v131.7l-114.1,65.9l-114.1-65.9V803L502.2,737.2 M502.2,729.1L381.2,799v139.8l121.1,69.9
				l121.1-69.9V799L502.2,729.1L502.2,729.1z"/>
		</g>
		<g>
			<path d="M540.3,41.5l114.1,65.9v131.7l-114.1,65.9l-114.1-65.9V107.4L540.3,41.5 M540.3,33.4l-121.1,69.9v139.8L540.3,313
				l121.1-69.9V103.3L540.3,33.4L540.3,33.4z"/>
		</g>
		<g>
			<path d="M800.4,597.8l114.1,65.9v131.7l-114.1,65.9l-114.1-65.9l0-131.7L800.4,597.8 M800.4,589.7l-121.1,69.9l0,139.8
				l121.1,69.9l121.1-69.9V659.6L800.4,589.7L800.4,589.7z"/>
		</g>
		<g>
			<path d="M1439.7,651.5l114.1,65.9V849l-114.1,65.9L1325.6,849V717.3L1439.7,651.5 M1439.7,643.4l-121.1,69.9v139.8l121.1,69.9
				l121.1-69.9V713.3L1439.7,643.4L1439.7,643.4z"/>
		</g>
		<g>
			<path d="M1780.8,679.1l114.1,65.9l0,131.7l-114.1,65.9l-114.1-65.9V745L1780.8,679.1 M1780.8,671l-121.1,69.9v139.8l121.1,69.9
				l121.1-69.9l0-139.8L1780.8,671L1780.8,671z"/>
		</g>
		<g>
			<path d="M1778.5,20.5l114.1,65.9V218l-114.1,65.9L1664.4,218V86.3L1778.5,20.5 M1778.5,12.4l-121.1,69.9v139.8l121.1,69.9
				l121.1-69.9V82.3L1778.5,12.4L1778.5,12.4z"/>
		</g>
		<g>
			<path d="M1615.8,349.6l114.1,65.9v131.7l-114.1,65.9l-114.1-65.9V415.5L1615.8,349.6 M1615.8,341.6l-121.1,69.9v139.8l121.1,69.9
				l121.1-69.9V411.5L1615.8,341.6L1615.8,341.6z"/>
		</g>
		<g>
			<path d="M1474.5,41.5l114.1,65.9V239l-114.1,65.9L1360.4,239V107.3L1474.5,41.5 M1474.5,33.4l-121.1,69.9v139.8l121.1,69.9
				l121.1-69.9V103.3L1474.5,33.4L1474.5,33.4z"/>
		</g>
		<g>
			<path d="M1272.6,383l114.1,65.9v131.7l-114.1,65.9l-114.1-65.9V448.9L1272.6,383 M1272.6,374.9l-121.1,69.9v139.8l121.1,69.9
				l121.1-69.9V444.8L1272.6,374.9L1272.6,374.9z"/>
		</g>
		<g>
			<path d="M947.4,323.8l114.1,65.9v131.7l-114.1,65.9l-114.1-65.9V389.6L947.4,323.8 M947.4,315.7l-121.1,69.9v139.8l121.1,69.9
				l121.1-69.9V385.6L947.4,315.7L947.4,315.7z"/>
		</g>
		<g>
		</g>
		<g>
		</g>
		<g>
		</g>
		<g>
		</g>
		<g>
		</g>
		<g>
		</g>
		<g>
		</g>
		<g>
		</g>
		<g>
		</g>
		<g>
		</g>
		<g>
		</g>
		<g>
		</g>
		<g>
		</g>
		<g>
		</g>
		<g>
		</g>
	</g>
</switch>
</svg>